<?xml version="1.0" standalone="no"?>
<!DOCTYPE svg PUBLIC "-//W3C//DTD SVG 20010904//EN"
 "http://www.w3.org/TR/2001/REC-SVG-20010904/DTD/svg10.dtd">
<svg version="1.0" xmlns="http://www.w3.org/2000/svg"
 width="458.000000pt" height="458.000000pt" viewBox="0 0 458.000000 458.000000"
 preserveAspectRatio="xMidYMid meet">
<metadata>
Created by potrace 1.14, written by Peter Selinger 2001-2017
</metadata>
<g transform="translate(0.000000,458.000000) scale(0.100000,-0.100000)"
fill="#000000" stroke="none">
<path d="M2090 4573 c-466 -47 -932 -240 -1270 -526 -432 -367 -707 -860 -796
-1427 -24 -150 -26 -472 -5 -630 10 -69 33 -181 66 -320 2 -8 14 -49 28 -90
209 -637 689 -1155 1302 -1405 97 -40 318 -109 375 -119 19 -3 58 -10 85 -15
73 -15 102 -20 180 -28 90 -10 381 -10 465 0 99 11 143 17 160 22 8 2 30 7 47
10 114 19 278 67 413 120 697 275 1222 894 1384 1628 24 109 27 131 43 260 10
81 10 383 0 472 -24 227 -78 441 -163 642 -312 746 -976 1263 -1784 1389 -97
15 -438 26 -530 17z"/>
</g>
</svg>
